<svg width="272" height="248" viewBox="0 0 272 248" fill="none" xmlns="http://www.w3.org/2000/svg">
<path d="M25.7065 48.1625L6.7065 45.6625C61.7065 17.6624 139.207 5.16246 149.7 1.66246C158.095 -1.13754 157.869 8.82911 156.707 14.1624C147.907 13.3624 66.5399 35.6625 25.7065 48.1625Z" fill="#FAD4C9"/>
<path d="M235.207 43.1625H266.207L271.206 108.162C270.373 154.162 268.206 246.162 266.207 246.162H256.706C150.706 241.162 62.2061 248.162 51.2061 246.162C40.2061 244.162 36.2061 246.162 31.2061 246.162H19.7061C16.5394 245.496 9.50615 243.962 6.70654 243.162C3.90692 242.362 3.87337 236.496 4.20654 233.662C-0.593462 217.662 0.539871 103.329 1.70654 48.1625C5.30654 46.1625 19.2065 50.3292 25.7065 52.6625C38.7065 53.8291 74.0065 55.0625 111.207 50.6624C157.707 45.1624 230.207 43.1625 235.207 43.1625Z" fill="#FAD4C9"/>
<path d="M25.7065 48.1625L6.7065 45.6625C61.7065 17.6624 139.207 5.16246 149.7 1.66246C158.095 -1.13754 157.869 8.82911 156.707 14.1624C147.907 13.3624 66.5399 35.6625 25.7065 48.1625Z" stroke="#FAD4C9"/>
<path d="M235.207 43.1625H266.207L271.206 108.162C270.373 154.162 268.206 246.162 266.207 246.162H256.706C150.706 241.162 62.2061 248.162 51.2061 246.162C40.2061 244.162 36.2061 246.162 31.2061 246.162H19.7061C16.5394 245.496 9.50615 243.962 6.70654 243.162C3.90692 242.362 3.87337 236.496 4.20654 233.662C-0.593462 217.662 0.539871 103.329 1.70654 48.1625C5.30654 46.1625 19.2065 50.3292 25.7065 52.6625C38.7065 53.8291 74.0065 55.0625 111.207 50.6624C157.707 45.1624 230.207 43.1625 235.207 43.1625Z" stroke="#FAD4C9"/>
<path d="M41.2061 29.6625C50.2061 25.6625 125.206 6.99579 152.706 1.16246C153.373 0.66246 155.006 -0.0375401 156.206 1.16246C157.406 2.36246 156.706 10.3291 156.206 14.1625C145.006 14.1625 62.2061 38.8291 22.7061 50.6625L2.20605 47.1625C19.3727 41.1625 35.4266 32.2311 41.2061 29.6625Z" fill="#FF9784"/>
<path d="M41.2061 29.6625C50.2061 25.6625 125.206 6.99579 152.706 1.16246C153.373 0.66246 155.006 -0.0375401 156.206 1.16246C157.406 2.36246 156.706 10.3291 156.206 14.1625C145.006 14.1625 62.2061 38.8291 22.7061 50.6625L2.20605 47.1625C19.3727 41.1625 35.4266 32.2311 41.2061 29.6625Z" stroke="#FAD4C9"/>
<path d="M41.2061 29.6625C50.2061 25.6625 125.206 6.99579 152.706 1.16246C153.373 0.66246 155.006 -0.0375401 156.206 1.16246C157.406 2.36246 156.706 10.3291 156.206 14.1625C145.006 14.1625 62.2061 38.8291 22.7061 50.6625L2.20605 47.1625C19.3727 41.1625 35.4266 32.2311 41.2061 29.6625Z" stroke="#FF9784"/>
<path d="M163.706 24.6625C172.106 22.6625 171.873 37.4959 170.706 45.1625C136.706 47.1625 66.7061 54.6625 50.2061 53.6625C35.4278 52.7668 25.5394 52.6625 23.2061 51.6625C29.2061 47.1625 137.206 18.6625 151.706 15.1625C163.306 12.3625 164.539 20.6625 163.706 24.6625Z" fill="#FFE9DB"/>
<path d="M163.706 24.6625C172.106 22.6625 171.873 37.4959 170.706 45.1625C136.706 47.1625 66.7061 54.6625 50.2061 53.6625C35.4278 52.7668 25.5394 52.6625 23.2061 51.6625C29.2061 47.1625 137.206 18.6625 151.706 15.1625C163.306 12.3625 164.539 20.6625 163.706 24.6625Z" stroke="#FAD4C9"/>
<path d="M163.706 24.6625C172.106 22.6625 171.873 37.4959 170.706 45.1625C136.706 47.1625 66.7061 54.6625 50.2061 53.6625C35.4278 52.7668 25.5394 52.6625 23.2061 51.6625C29.2061 47.1625 137.206 18.6625 151.706 15.1625C163.306 12.3625 164.539 20.6625 163.706 24.6625Z" stroke="#FFE9DB"/>
<path d="M164.206 24.6625L63.2061 50.6625" stroke="black" stroke-width="3" stroke-linecap="round"/>
<path d="M110.782 125.697C109.733 125.697 108.803 125.364 107.992 124.696C107.229 123.981 106.847 123.098 106.847 122.049C106.847 120.475 106.895 118.949 106.99 117.471C107.134 115.993 107.205 114.49 107.205 112.964V108.243C107.205 106.288 107.134 104.356 106.99 102.449C106.895 100.494 106.585 98.5623 106.06 96.6547C105.87 96.0824 105.703 95.4863 105.56 94.8664C105.464 94.1987 105.417 93.5311 105.417 92.8634C105.417 91.9096 105.655 90.9559 106.132 90.0021C106.609 89.0006 107.467 88.4999 108.707 88.4999C109.709 88.4999 110.519 88.8814 111.139 89.6444C111.759 90.3598 112.236 91.2658 112.57 92.3627C112.904 93.4119 113.142 94.4849 113.285 95.5817C113.476 96.6309 113.643 97.5131 113.786 98.2284C113.882 98.8484 114.025 99.516 114.215 100.231C114.406 100.947 114.501 101.638 114.501 102.306C114.501 102.354 114.549 102.497 114.645 102.735C114.74 102.974 114.835 103.212 114.931 103.45C115.551 102.354 116.242 101.161 117.005 99.8737C117.816 98.5384 118.698 97.2985 119.652 96.154C120.653 94.9617 121.75 93.9841 122.942 93.2211C124.182 92.4581 125.541 92.0766 127.02 92.0766C128.546 92.0766 129.69 92.4581 130.453 93.2211C131.264 93.9364 131.908 94.8425 132.385 95.9394C132.862 96.9885 133.339 98.0377 133.816 99.0868C134.006 99.5637 134.126 100.064 134.173 100.589C134.221 101.066 134.34 101.567 134.531 102.091L135.318 100.947C136.272 99.6114 137.345 98.1569 138.537 96.5832C139.777 94.9617 141.16 93.5788 142.686 92.4342C144.212 91.242 145.929 90.6459 147.836 90.6459C149.362 90.6459 150.65 91.0989 151.699 92.005C152.796 92.8634 153.678 93.9841 154.346 95.3671C155.061 96.7501 155.586 98.1808 155.919 99.6591C156.253 101.137 156.42 102.497 156.42 103.737V118.902C156.42 119.617 156.301 120.404 156.062 121.262C155.872 122.073 155.514 122.788 154.989 123.408C154.465 123.981 153.726 124.267 152.772 124.267C151.675 124.267 150.793 123.885 150.125 123.122C149.458 122.359 149.124 121.548 149.124 120.69V107.671C149.124 107.528 149.1 107.218 149.052 106.741C149.004 106.264 148.933 105.763 148.838 105.239C148.79 104.714 148.766 104.333 148.766 104.094C148.766 103.713 148.718 103.117 148.623 102.306C148.528 101.495 148.337 100.732 148.051 100.017C147.765 99.3014 147.335 98.9438 146.763 98.9438H146.119C144.689 100.184 143.616 101.376 142.9 102.52C142.185 103.617 141.637 104.714 141.255 105.811C140.874 106.908 140.516 108.076 140.182 109.316C139.848 110.508 139.371 111.82 138.751 113.25C138.418 114.49 137.869 115.659 137.106 116.756C136.391 117.805 135.389 118.329 134.102 118.329C132.862 118.329 131.908 117.996 131.24 117.328C130.62 116.613 130.143 115.754 129.81 114.753C129.524 113.751 129.285 112.797 129.094 111.891C128.999 111.462 128.832 110.747 128.594 109.745C128.355 108.744 128.093 107.647 127.807 106.455C127.568 105.263 127.33 104.142 127.091 103.093C126.853 101.996 126.686 101.185 126.591 100.661C126.305 100.231 126.018 100.017 125.732 100.017C125.303 100.017 124.85 100.327 124.373 100.947C123.896 101.567 123.539 102.163 123.3 102.735C123.014 103.164 122.609 103.927 122.084 105.024C121.559 106.073 121.059 107.099 120.582 108.1C120.153 109.102 119.866 109.769 119.723 110.103C119.628 110.389 119.342 111.081 118.865 112.177C118.436 113.274 117.935 114.538 117.363 115.969C116.791 117.352 116.266 118.616 115.789 119.76C115.312 120.905 115.002 121.668 114.859 122.049C114.382 122.955 113.881 123.79 113.357 124.553C112.88 125.316 112.022 125.697 110.782 125.697Z" fill="#214B4A"/>
<path d="M175.307 145.154C174.449 145.154 173.805 144.725 173.376 143.867C172.947 143.056 172.732 142.245 172.732 141.435C172.732 139.909 173.066 138.454 173.733 137.071C174.401 135.736 174.997 134.377 175.522 132.994C175.76 132.374 176.046 131.563 176.38 130.562C176.762 129.608 177.119 128.63 177.453 127.629C177.835 126.627 178.145 125.769 178.383 125.054C178.622 124.338 178.741 123.933 178.741 123.837V123.623C176.118 123.432 173.924 122.741 172.16 121.548C170.395 120.356 168.988 118.854 167.939 117.042C166.89 115.23 166.103 113.25 165.579 111.104C165.054 108.911 164.696 106.693 164.506 104.452C164.363 102.21 164.291 100.112 164.291 98.1569C164.291 97.537 164.315 96.7262 164.363 95.7248C164.41 94.6756 164.53 93.6265 164.72 92.5773C164.959 91.5281 165.316 90.6459 165.793 89.9305C166.318 89.2152 167.033 88.8575 167.939 88.8575C169.704 88.8575 170.848 89.5013 171.373 90.789C171.945 92.0766 172.231 93.4834 172.231 95.0094C172.231 96.0586 172.16 97.0362 172.017 97.9423C171.921 98.8484 171.874 99.8499 171.874 100.947V101.662C171.874 101.996 171.945 102.711 172.088 103.808C172.231 104.905 172.374 106.026 172.517 107.17C172.708 108.315 172.851 109.173 172.947 109.745C173.185 111.319 173.662 112.702 174.377 113.894C175.093 115.039 176.094 115.611 177.382 115.611C178.908 115.611 180.243 115.015 181.388 113.823C182.58 112.631 183.629 111.081 184.535 109.173C185.489 107.266 186.395 105.263 187.253 103.164C188.112 101.018 188.97 98.9915 189.829 97.0839C190.687 95.1763 191.617 93.6265 192.618 92.4342C193.668 91.242 194.836 90.6459 196.123 90.6459C198.27 90.6459 199.343 91.8381 199.343 94.2226C199.343 95.844 199.08 97.3939 198.556 98.8722C198.079 100.351 197.459 101.781 196.696 103.164C195.98 104.547 195.217 105.906 194.407 107.242C193.596 108.577 192.881 109.936 192.261 111.319C190.353 115.373 188.589 119.545 186.967 123.837C185.393 128.082 183.867 132.35 182.389 136.642C182.008 137.739 181.531 138.955 180.958 140.29C180.386 141.625 179.647 142.77 178.741 143.724C177.882 144.678 176.738 145.154 175.307 145.154Z" fill="#214B4A"/>
<path d="M74.7418 200.103C73.6449 200.103 72.3812 200.055 70.9505 199.96C69.5675 199.912 68.2799 199.626 67.0877 199.102C65.8955 198.577 65.0132 197.695 64.441 196.455V193.594C64.441 192.544 64.441 191.614 64.441 190.804C64.4887 189.993 64.6079 189.063 64.7986 188.014V168.199C64.7986 168.056 64.7271 167.603 64.584 166.84C64.4887 166.029 64.441 165.457 64.441 165.123C64.441 164.456 64.3217 163.788 64.0833 163.12C63.8925 162.453 63.7972 161.809 63.7972 161.189C63.7972 161.046 63.7495 160.831 63.6541 160.545C63.6064 160.211 63.4156 159.901 63.0818 159.615C62.4619 159.854 61.9373 160.044 61.5081 160.187C61.0789 160.283 60.5543 160.33 59.9343 160.33C59.0759 160.33 58.1937 159.949 57.2876 159.186C56.4292 158.375 56 157.517 56 156.611C56 155.037 56.5007 153.797 57.5022 152.891C58.5037 151.937 59.7436 151.222 61.222 150.745C62.748 150.22 64.2741 149.839 65.8001 149.6C67.3738 149.362 68.733 149.195 69.8775 149.1C70.4975 149.1 71.332 149.076 72.3812 149.028C73.4303 148.933 74.408 148.861 75.3141 148.814C76.2678 148.766 76.7924 148.742 76.8878 148.742C80.1783 148.837 83.3974 149.433 86.5448 150.53C89.6923 151.579 92.5298 153.106 95.0573 155.108C97.6325 157.064 99.6593 159.448 101.138 162.262C102.664 165.075 103.427 168.247 103.427 171.776C103.427 175.496 102.616 179.048 100.995 182.434C99.4209 185.82 97.251 188.848 94.4851 191.519C91.7668 194.19 88.6908 196.288 85.2572 197.814C81.8713 199.34 78.3662 200.103 74.7418 200.103ZM74.3841 191.376C76.864 191.376 79.3438 190.804 81.8236 189.659C84.3511 188.515 86.6641 186.989 88.7624 185.081C90.8607 183.126 92.5537 180.932 93.8413 178.5C95.1289 176.068 95.7727 173.588 95.7727 171.06C95.7727 168.628 95.105 166.53 93.7697 164.765C92.4344 163.001 90.7176 161.57 88.6193 160.473C86.5687 159.329 84.375 158.494 82.0382 157.97C79.7015 157.398 77.5078 157.111 75.4571 157.111C75.2187 157.111 74.9326 157.111 74.5987 157.111C74.3126 157.064 73.9788 157.04 73.5973 157.04C73.1681 157.04 72.7627 157.088 72.3812 157.183C71.9997 157.278 71.6897 157.469 71.4513 157.755C72.1666 161.237 72.6196 164.575 72.8104 167.77C73.0488 170.965 73.1681 174.303 73.1681 177.785C73.1681 179.692 73.0965 181.647 72.9535 183.65C72.8581 185.606 72.8104 187.632 72.8104 189.731V191.018C73.2396 191.257 73.7642 191.376 74.3841 191.376Z" fill="#FF9784"/>
<path d="M118.715 154.965C117.284 154.965 116.044 154.512 114.995 153.606C113.946 152.7 113.421 151.365 113.421 149.6C113.421 147.836 114.041 146.596 115.281 145.881C116.521 145.165 117.785 144.808 119.072 144.808C120.551 144.808 121.791 145.261 122.792 146.167C123.841 147.073 124.366 148.432 124.366 150.244C124.366 151.961 123.746 153.177 122.506 153.892C121.314 154.608 120.05 154.965 118.715 154.965ZM115.853 197.957C114.947 197.957 114.256 197.48 113.779 196.526C113.302 195.573 112.944 194.619 112.706 193.665V184.437C112.706 184.199 112.754 183.579 112.849 182.577C112.992 181.528 113.135 180.312 113.278 178.929C113.469 177.498 113.636 176.139 113.779 174.852C113.97 173.516 114.113 172.467 114.208 171.704C114.351 170.75 114.518 169.701 114.709 168.557C114.947 167.412 115.353 166.411 115.925 165.552C116.497 164.694 117.308 164.265 118.357 164.265C119.502 164.265 120.312 164.551 120.789 165.123C121.314 165.648 121.624 166.315 121.719 167.126C121.815 167.937 121.862 168.771 121.862 169.63V172.133C121.862 172.229 121.838 172.443 121.791 172.777C121.743 173.063 121.672 173.397 121.576 173.779C121.242 175.448 120.98 176.688 120.789 177.498C120.646 178.261 120.527 178.929 120.432 179.501C120.384 180.026 120.36 180.765 120.36 181.719C120.36 182.291 120.36 183.007 120.36 183.865C120.408 184.723 120.432 185.844 120.432 187.227C120.432 187.847 120.455 188.467 120.503 189.087C120.551 189.659 120.575 190.279 120.575 190.947C120.575 191.662 120.503 192.425 120.36 193.236C120.169 194.428 119.74 195.525 119.072 196.526C118.405 197.48 117.332 197.957 115.853 197.957Z" fill="#FF9784"/>
<path d="M142.658 199.745C140.465 199.745 138.414 199.245 136.507 198.243C134.599 197.242 133.001 195.906 131.714 194.237C130.426 192.521 129.592 190.589 129.21 188.443V184.795C129.21 182.124 129.687 179.43 130.641 176.712C131.595 173.993 132.954 171.49 134.718 169.201C136.483 166.864 138.581 165.004 141.013 163.621C143.445 162.19 146.116 161.475 149.025 161.475C150.217 161.475 151.242 161.69 152.101 162.119C153.007 162.548 153.818 163.001 154.533 163.478C155.296 163.907 156.035 164.169 156.751 164.265C157.132 162.31 157.657 161.022 158.324 160.402C158.992 159.734 159.898 159.4 161.043 159.4C162.426 159.4 163.356 159.854 163.832 160.76C164.357 161.618 164.619 162.715 164.619 164.05C164.619 166.673 164.548 169.248 164.405 171.776C164.309 174.303 164.262 176.902 164.262 179.573C164.262 181.671 164.381 183.841 164.619 186.083C164.858 188.324 164.977 190.494 164.977 192.592V194.094C164.977 195.143 164.762 196.121 164.333 197.027C163.952 197.886 163.069 198.315 161.686 198.315C160.399 198.315 159.469 197.933 158.897 197.17C158.372 196.359 158.014 195.406 157.824 194.309C157.681 193.164 157.537 192.139 157.394 191.233L157.108 190.947C155.487 192.568 154.032 194.047 152.745 195.382C151.505 196.717 150.122 197.79 148.596 198.601C147.07 199.364 145.091 199.745 142.658 199.745ZM141.943 192.521C143.612 192.521 145.186 192.02 146.664 191.018C148.19 189.969 149.55 188.634 150.742 187.012C151.934 185.343 152.864 183.603 153.532 181.79C154.199 179.978 154.533 178.285 154.533 176.712C154.533 175.519 154.366 174.327 154.032 173.135C153.698 171.895 153.126 170.846 152.315 169.987C151.552 169.129 150.456 168.7 149.025 168.7C147.451 168.7 145.901 169.248 144.375 170.345C142.897 171.442 141.562 172.849 140.369 174.566C139.177 176.235 138.223 177.999 137.508 179.859C136.793 181.671 136.435 183.317 136.435 184.795C136.435 185.987 136.602 187.179 136.936 188.372C137.317 189.564 137.913 190.565 138.724 191.376C139.535 192.139 140.608 192.521 141.943 192.521Z" fill="#FF9784"/>
<path d="M176.664 199.745C175.805 199.745 175.162 199.459 174.732 198.887C174.303 198.315 174.017 197.647 173.874 196.884C173.731 196.073 173.588 195.358 173.445 194.738V189.445C173.445 186.774 173.564 184.08 173.802 181.361C174.041 178.595 174.16 175.901 174.16 173.278C174.16 172.038 174.041 170.846 173.802 169.701C173.564 168.557 173.445 167.388 173.445 166.196V164.265C173.826 163.549 174.327 163.025 174.947 162.691C175.615 162.357 176.306 162.19 177.021 162.19C178.071 162.19 178.857 162.5 179.382 163.12C179.907 163.692 180.264 164.384 180.455 165.195C180.693 166.005 180.908 166.745 181.099 167.412C181.29 168.032 181.6 168.39 182.029 168.485C183.412 167.579 184.723 166.697 185.963 165.839C187.251 164.98 188.586 164.289 189.969 163.764C191.4 163.192 192.973 162.906 194.69 162.906C195.549 162.906 196.455 163.096 197.408 163.478C198.41 163.859 199.268 164.408 199.984 165.123C200.699 165.791 201.057 166.625 201.057 167.627C201.057 168.867 200.556 169.773 199.554 170.345C198.601 170.917 197.695 171.204 196.836 171.204C196.264 171.204 195.716 171.084 195.191 170.846C194.666 170.607 194.118 170.488 193.546 170.488C191.877 170.488 190.303 170.917 188.824 171.776C187.394 172.587 186.13 173.564 185.033 174.709C183.936 175.853 183.054 176.926 182.386 177.928C182.196 178.357 182.053 179.072 181.957 180.074C181.862 181.075 181.79 182.22 181.743 183.507C181.695 184.747 181.647 185.963 181.6 187.156C181.6 188.348 181.576 189.373 181.528 190.231C181.48 191.805 181.313 193.331 181.027 194.81C180.789 196.24 180.336 197.432 179.668 198.386C179 199.292 177.999 199.745 176.664 199.745Z" fill="#FF9784"/>
<path d="M212.808 217.772C211.949 217.772 211.306 217.343 210.876 216.484C210.447 215.674 210.233 214.863 210.233 214.052C210.233 212.526 210.566 211.072 211.234 209.689C211.902 208.353 212.498 206.994 213.022 205.611C213.261 204.991 213.547 204.18 213.881 203.179C214.262 202.225 214.62 201.248 214.954 200.246C215.335 199.245 215.645 198.386 215.884 197.671C216.122 196.956 216.241 196.55 216.241 196.455V196.24C213.618 196.05 211.425 195.358 209.66 194.166C207.896 192.974 206.489 191.471 205.44 189.659C204.391 187.847 203.604 185.868 203.079 183.722C202.555 181.528 202.197 179.311 202.006 177.069C201.863 174.828 201.792 172.73 201.792 170.774C201.792 170.154 201.815 169.344 201.863 168.342C201.911 167.293 202.03 166.244 202.221 165.195C202.459 164.146 202.817 163.263 203.294 162.548C203.818 161.833 204.534 161.475 205.44 161.475C207.204 161.475 208.349 162.119 208.873 163.406C209.446 164.694 209.732 166.101 209.732 167.627C209.732 168.676 209.66 169.654 209.517 170.56C209.422 171.466 209.374 172.467 209.374 173.564V174.279C209.374 174.613 209.446 175.329 209.589 176.425C209.732 177.522 209.875 178.643 210.018 179.788C210.209 180.932 210.352 181.79 210.447 182.363C210.686 183.937 211.162 185.319 211.878 186.512C212.593 187.656 213.595 188.229 214.882 188.229C216.408 188.229 217.744 187.632 218.888 186.44C220.08 185.248 221.129 183.698 222.036 181.79C222.989 179.883 223.895 177.88 224.754 175.782C225.612 173.636 226.471 171.609 227.329 169.701C228.187 167.794 229.117 166.244 230.119 165.052C231.168 163.859 232.336 163.263 233.624 163.263C235.77 163.263 236.843 164.456 236.843 166.84C236.843 168.461 236.581 170.011 236.056 171.49C235.579 172.968 234.959 174.399 234.196 175.782C233.481 177.165 232.718 178.524 231.907 179.859C231.096 181.194 230.381 182.554 229.761 183.936C227.854 187.99 226.089 192.163 224.468 196.455C222.894 200.699 221.368 204.967 219.89 209.259C219.508 210.356 219.031 211.572 218.459 212.908C217.887 214.243 217.147 215.387 216.241 216.341C215.383 217.295 214.238 217.772 212.808 217.772Z" fill="#FF9784"/>
<path d="M80.161 196.852C79.0642 196.852 77.8004 196.804 76.3697 196.708C74.9867 196.661 73.6991 196.375 72.5069 195.85C71.3147 195.326 70.4324 194.443 69.8602 193.203V190.342C69.8602 189.293 69.8602 188.363 69.8602 187.552C69.9079 186.741 70.0271 185.812 70.2178 184.762V164.948C70.2178 164.805 70.1463 164.351 70.0032 163.588C69.9079 162.778 69.8602 162.205 69.8602 161.872C69.8602 161.204 69.741 160.536 69.5025 159.869C69.3117 159.201 69.2164 158.557 69.2164 157.937C69.2164 157.794 69.1687 157.58 69.0733 157.293C69.0256 156.96 68.8349 156.65 68.501 156.364C67.8811 156.602 67.3565 156.793 66.9273 156.936C66.4981 157.031 65.9735 157.079 65.3536 157.079C64.4952 157.079 63.6129 156.697 62.7068 155.934C61.8484 155.124 61.4192 154.265 61.4192 153.359C61.4192 151.785 61.9199 150.545 62.9214 149.639C63.9229 148.686 65.1628 147.97 66.6412 147.493C68.1672 146.969 69.6933 146.587 71.2193 146.349C72.793 146.11 74.1522 145.944 75.2967 145.848C75.9167 145.848 76.7512 145.824 77.8004 145.777C78.8496 145.681 79.8272 145.61 80.7333 145.562C81.6871 145.514 82.2116 145.49 82.307 145.49C85.5976 145.586 88.8166 146.182 91.964 147.279C95.1115 148.328 97.949 149.854 100.477 151.857C103.052 153.812 105.079 156.197 106.557 159.01C108.083 161.824 108.846 164.995 108.846 168.524C108.846 172.244 108.035 175.797 106.414 179.183C104.84 182.569 102.67 185.597 99.9043 188.268C97.186 190.938 94.1101 193.036 90.6764 194.562C87.2905 196.089 83.7854 196.852 80.161 196.852ZM79.8033 188.124C82.2832 188.124 84.763 187.552 87.2428 186.408C89.7704 185.263 92.0833 183.737 94.1816 181.83C96.2799 179.874 97.9729 177.681 99.2605 175.248C100.548 172.816 101.192 170.336 101.192 167.809C101.192 165.377 100.524 163.278 99.1889 161.514C97.8536 159.749 96.1368 158.319 94.0385 157.222C91.9879 156.077 89.7942 155.243 87.4574 154.718C85.1207 154.146 82.927 153.86 80.8763 153.86C80.6379 153.86 80.3518 153.86 80.0179 153.86C79.7318 153.812 79.398 153.788 79.0165 153.788C78.5873 153.788 78.1819 153.836 77.8004 153.931C77.4189 154.027 77.1089 154.218 76.8705 154.504C77.5858 157.985 78.0388 161.323 78.2296 164.518C78.468 167.714 78.5873 171.052 78.5873 174.533C78.5873 176.441 78.5157 178.396 78.3727 180.399C78.2773 182.354 78.2296 184.381 78.2296 186.479V187.767C78.6588 188.005 79.1834 188.124 79.8033 188.124Z" fill="#214B4A"/>
<path d="M124.134 151.714C122.703 151.714 121.463 151.261 120.414 150.355C119.365 149.449 118.841 148.113 118.841 146.349C118.841 144.584 119.461 143.344 120.7 142.629C121.94 141.914 123.204 141.556 124.492 141.556C125.97 141.556 127.21 142.009 128.211 142.915C129.261 143.821 129.785 145.18 129.785 146.993C129.785 148.709 129.165 149.926 127.925 150.641C126.733 151.356 125.469 151.714 124.134 151.714ZM121.273 194.706C120.367 194.706 119.675 194.229 119.198 193.275C118.721 192.321 118.364 191.367 118.125 190.414V181.186C118.125 180.947 118.173 180.327 118.268 179.326C118.411 178.277 118.554 177.061 118.697 175.678C118.888 174.247 119.055 172.888 119.198 171.6C119.389 170.265 119.532 169.216 119.627 168.453C119.77 167.499 119.937 166.45 120.128 165.305C120.367 164.161 120.772 163.159 121.344 162.301C121.916 161.442 122.727 161.013 123.776 161.013C124.921 161.013 125.732 161.299 126.209 161.872C126.733 162.396 127.043 163.064 127.138 163.875C127.234 164.685 127.282 165.52 127.282 166.378V168.882C127.282 168.977 127.258 169.192 127.21 169.526C127.162 169.812 127.091 170.146 126.995 170.527C126.662 172.196 126.399 173.436 126.209 174.247C126.065 175.01 125.946 175.678 125.851 176.25C125.803 176.774 125.779 177.514 125.779 178.467C125.779 179.04 125.779 179.755 125.779 180.613C125.827 181.472 125.851 182.593 125.851 183.976C125.851 184.595 125.875 185.215 125.922 185.835C125.97 186.408 125.994 187.028 125.994 187.695C125.994 188.411 125.922 189.174 125.779 189.984C125.589 191.177 125.159 192.273 124.492 193.275C123.824 194.229 122.751 194.706 121.273 194.706Z" fill="#214B4A"/>
<path d="M148.078 196.494C145.884 196.494 143.833 195.993 141.926 194.992C140.018 193.99 138.421 192.655 137.133 190.986C135.845 189.269 135.011 187.338 134.629 185.192V181.543C134.629 178.873 135.106 176.178 136.06 173.46C137.014 170.742 138.373 168.238 140.137 165.949C141.902 163.612 144 161.752 146.432 160.369C148.865 158.939 151.535 158.223 154.444 158.223C155.636 158.223 156.662 158.438 157.52 158.867C158.426 159.296 159.237 159.749 159.952 160.226C160.715 160.656 161.454 160.918 162.17 161.013C162.551 159.058 163.076 157.77 163.744 157.15C164.411 156.483 165.317 156.149 166.462 156.149C167.845 156.149 168.775 156.602 169.252 157.508C169.776 158.366 170.038 159.463 170.038 160.799C170.038 163.422 169.967 165.997 169.824 168.524C169.728 171.052 169.681 173.651 169.681 176.321C169.681 178.42 169.8 180.59 170.038 182.831C170.277 185.072 170.396 187.242 170.396 189.341V190.843C170.396 191.892 170.182 192.87 169.752 193.776C169.371 194.634 168.489 195.063 167.106 195.063C165.818 195.063 164.888 194.682 164.316 193.919C163.791 193.108 163.434 192.154 163.243 191.057C163.1 189.913 162.957 188.887 162.814 187.981L162.527 187.695C160.906 189.317 159.452 190.795 158.164 192.13C156.924 193.466 155.541 194.539 154.015 195.349C152.489 196.112 150.51 196.494 148.078 196.494ZM147.362 189.269C149.031 189.269 150.605 188.768 152.084 187.767C153.61 186.718 154.969 185.382 156.161 183.761C157.353 182.092 158.283 180.351 158.951 178.539C159.618 176.727 159.952 175.034 159.952 173.46C159.952 172.268 159.785 171.076 159.452 169.883C159.118 168.643 158.545 167.594 157.735 166.736C156.972 165.878 155.875 165.448 154.444 165.448C152.87 165.448 151.321 165.997 149.794 167.094C148.316 168.19 146.981 169.597 145.789 171.314C144.596 172.983 143.643 174.748 142.927 176.608C142.212 178.42 141.854 180.065 141.854 181.543C141.854 182.736 142.021 183.928 142.355 185.12C142.736 186.312 143.333 187.314 144.143 188.124C144.954 188.887 146.027 189.269 147.362 189.269Z" fill="#214B4A"/>
<path d="M182.083 196.494C181.225 196.494 180.581 196.208 180.152 195.635C179.722 195.063 179.436 194.396 179.293 193.633C179.15 192.822 179.007 192.106 178.864 191.487V186.193C178.864 183.522 178.983 180.828 179.222 178.11C179.46 175.344 179.579 172.649 179.579 170.026C179.579 168.787 179.46 167.594 179.222 166.45C178.983 165.305 178.864 164.137 178.864 162.945V161.013C179.245 160.298 179.746 159.773 180.366 159.44C181.034 159.106 181.725 158.939 182.441 158.939C183.49 158.939 184.277 159.249 184.801 159.869C185.326 160.441 185.683 161.132 185.874 161.943C186.113 162.754 186.327 163.493 186.518 164.161C186.709 164.781 187.019 165.138 187.448 165.234C188.831 164.328 190.142 163.445 191.382 162.587C192.67 161.729 194.005 161.037 195.388 160.513C196.819 159.94 198.393 159.654 200.109 159.654C200.968 159.654 201.874 159.845 202.828 160.226C203.829 160.608 204.688 161.156 205.403 161.872C206.118 162.539 206.476 163.374 206.476 164.375C206.476 165.615 205.975 166.521 204.974 167.094C204.02 167.666 203.114 167.952 202.255 167.952C201.683 167.952 201.135 167.833 200.61 167.594C200.086 167.356 199.537 167.237 198.965 167.237C197.296 167.237 195.722 167.666 194.244 168.524C192.813 169.335 191.549 170.313 190.452 171.457C189.356 172.602 188.473 173.675 187.806 174.676C187.615 175.105 187.472 175.821 187.376 176.822C187.281 177.824 187.21 178.968 187.162 180.256C187.114 181.496 187.066 182.712 187.019 183.904C187.019 185.096 186.995 186.122 186.947 186.98C186.9 188.554 186.733 190.08 186.446 191.558C186.208 192.989 185.755 194.181 185.087 195.135C184.42 196.041 183.418 196.494 182.083 196.494Z" fill="#214B4A"/>
<path d="M218.227 214.52C217.369 214.52 216.725 214.091 216.296 213.233C215.866 212.422 215.652 211.611 215.652 210.801C215.652 209.275 215.986 207.82 216.653 206.437C217.321 205.102 217.917 203.743 218.442 202.36C218.68 201.74 218.966 200.929 219.3 199.927C219.681 198.974 220.039 197.996 220.373 196.995C220.754 195.993 221.064 195.135 221.303 194.419C221.541 193.704 221.661 193.299 221.661 193.203V192.989C219.038 192.798 216.844 192.106 215.079 190.914C213.315 189.722 211.908 188.22 210.859 186.408C209.81 184.595 209.023 182.616 208.498 180.47C207.974 178.277 207.616 176.059 207.425 173.818C207.282 171.576 207.211 169.478 207.211 167.523C207.211 166.903 207.235 166.092 207.282 165.091C207.33 164.041 207.449 162.992 207.64 161.943C207.878 160.894 208.236 160.012 208.713 159.296C209.238 158.581 209.953 158.223 210.859 158.223C212.623 158.223 213.768 158.867 214.293 160.155C214.865 161.442 215.151 162.849 215.151 164.375C215.151 165.424 215.079 166.402 214.936 167.308C214.841 168.214 214.793 169.216 214.793 170.313V171.028C214.793 171.362 214.865 172.077 215.008 173.174C215.151 174.271 215.294 175.391 215.437 176.536C215.628 177.681 215.771 178.539 215.866 179.111C216.105 180.685 216.582 182.068 217.297 183.26C218.012 184.405 219.014 184.977 220.301 184.977C221.827 184.977 223.163 184.381 224.307 183.189C225.5 181.996 226.549 180.447 227.455 178.539C228.409 176.631 229.315 174.628 230.173 172.53C231.031 170.384 231.89 168.357 232.748 166.45C233.607 164.542 234.537 162.992 235.538 161.8C236.587 160.608 237.756 160.012 239.043 160.012C241.189 160.012 242.262 161.204 242.262 163.588C242.262 165.21 242 166.76 241.475 168.238C240.998 169.716 240.379 171.147 239.615 172.53C238.9 173.913 238.137 175.272 237.326 176.608C236.516 177.943 235.8 179.302 235.18 180.685C233.273 184.739 231.508 188.911 229.887 193.203C228.313 197.448 226.787 201.716 225.309 206.008C224.927 207.105 224.45 208.321 223.878 209.656C223.306 210.991 222.567 212.136 221.661 213.09C220.802 214.043 219.658 214.52 218.227 214.52Z" fill="#214B4A"/>
<path d="M7.20501 93.6625C-3.99499 88.0625 1.20605 84.1625 1.20575 79.6625L15.2061 82.6625L28.3899 88.6625C29.89 91.6625 31.9903 97.9625 28.3899 99.1625C23.8894 100.662 21.205 100.662 7.20501 93.6625Z" fill="#FF9784"/>
<path d="M27.7061 64.1625C32.3727 109.662 38.9061 206.862 27.7061 231.662" stroke="black" stroke-width="4" stroke-linecap="round"/>
<path d="M31.2074 214.663C21.8183 217.786 9.2867 212.663 2.7069 209.163M29.7061 223.662C20.317 226.786 10.2867 221.663 3.7069 218.163" stroke="black" stroke-width="5" stroke-linecap="round"/>
</svg>
